<svg width="37" height="36" viewBox="0 0 37 36" fill="none" xmlns="http://www.w3.org/2000/svg">
<path d="M30.3334 22.5003H27.3335M27.3335 22.5003C27.3335 22.5003 21.3335 28.5004 18.3335 28.5004C16.1811 28.5004 13.2566 25.4118 11.7758 23.6666C11.1649 22.9465 10.2778 22.5003 9.33348 22.5003H6.3335M27.3335 22.5003L22.8335 17.3003" stroke="#664122" stroke-width="2" stroke-linecap="round" stroke-linejoin="round"/>
<path d="M6.3335 12H8.09086C8.8865 12 9.64957 11.6839 10.2122 11.1213L11.7122 9.62132C12.8838 8.44975 14.7832 8.44975 15.9548 9.62132L18.3335 12" stroke="#664122" stroke-width="2" stroke-linecap="round" stroke-linejoin="round"/>
<path d="M30.3335 12.0001H28.5761C27.7805 12.0001 27.0174 11.684 26.4548 11.1214L24.9548 9.62138C23.7832 8.44978 21.8837 8.44978 20.7121 9.62137L14.8941 15.4394C14.3084 16.0252 14.3084 16.975 14.8941 17.5607L17.2728 19.9394C17.8586 20.5252 18.8084 20.5252 19.3941 19.9394L24.3335 15.0001" stroke="#664122" stroke-width="2" stroke-linecap="round" stroke-linejoin="round"/>
</svg>
